<svg xmlns="http://www.w3.org/2000/svg" viewBox="0 0 48 48" xmlns:xlink="http://www.w3.org/1999/xlink" xml:space="preserve" width="100%" height="100%"><path xmlns="http://www.w3.org/2000/svg" d="M38.88 26c-.44 0-.9-.14-1.34-.24a19 19 0 0 1-2.62-.78 4 4 0 0 0-4.96 2l-.44.9a24.4 24.4 0 0 1-5.32-4 24.4 24.4 0 0 1-4-5.32l.84-.56a4 4 0 0 0 2-4.96 20 20 0 0 1-.78-2.62c-.1-.44-.18-.9-.24-1.36a6 6 0 0 0-6-4.98h-6a6 6 0 0 0-6 6.82 38 38 0 0 0 33.04 32.92h.76a6 6 0 0 0 4-1.52 6 6 0 0 0 2-4.5v-6a6 6 0 0 0-4.94-5.8m1 12a2 2 0 0 1-.68 1.5 2.1 2.1 0 0 1-1.64.5A34 34 0 0 1 8.14 10.44a2.2 2.2 0 0 1 .5-1.64 2 2 0 0 1 1.5-.68h6a2 2 0 0 1 2 1.58q.12.82.3 1.62a22 22 0 0 0 .92 3.1l-2.8 1.3a2 2 0 0 0-.98 2.66 29 29 0 0 0 14 14 2 2 0 0 0 1.52 0 2 2 0 0 0 1.14-1.04l1.24-2.8a28 28 0 0 0 3.16.92q.8.18 1.62.3a2 2 0 0 1 1.58 2z"></path></svg>