<?xml version="1.0" encoding="UTF-8" standalone="no" ?>
<!DOCTYPE svg PUBLIC "-//W3C//DTD SVG 1.1//EN" "http://www.w3.org/Graphics/SVG/1.1/DTD/svg11.dtd">
<svg xmlns="http://www.w3.org/2000/svg" xmlns:xlink="http://www.w3.org/1999/xlink" version="1.1" width="1080" height="1080" viewBox="0 0 1080 1080" xml:space="preserve">
<desc>Created with Fabric.js 5.2.4</desc>
<defs>
</defs>
<g transform="matrix(1 0 0 1 540 540)" id="fba07e33-e902-4359-9ad7-0c3636a86944"  >
<rect style="stroke: none; stroke-width: 1; stroke-dasharray: none; stroke-linecap: butt; stroke-dashoffset: 0; stroke-linejoin: miter; stroke-miterlimit: 4; fill: rgb(255,255,255); fill-rule: nonzero; opacity: 1;" vector-effect="non-scaling-stroke"  x="-540" y="-540" rx="0" ry="0" width="1080" height="1080" />
</g>
<g transform="matrix(1 0 0 1 540 540)" id="08dd0422-ac31-4f0c-a77e-644ce64b1a8e"  >
</g>
<g transform="matrix(7.61 0 0 7.61 540 540)" id="043730d8-7b80-4aae-bd44-c7f78d1e19ed"  >
<path style="stroke: rgb(0,0,0); stroke-width: 0; stroke-dasharray: none; stroke-linecap: butt; stroke-dashoffset: 0; stroke-linejoin: miter; stroke-miterlimit: 4; fill: rgb(0,0,0); fill-rule: nonzero; opacity: 1;" vector-effect="non-scaling-stroke"  transform=" translate(-61.43, -61.44)" d="M 21.47 0 L 103.05 0 C 108.30423407655164 0.004580933481451109 113.34097329827473 2.0984253813691955 117.05 5.819999999999997 L 117.36999999999999 6.17 C 120.89220894016796 9.846331575959718 122.8620509683951 14.738702867883845 122.86999999999999 19.830000000000002 L 122.86999999999999 103.05 C 122.82615548555876 113.98359410043089 113.97359410043089 122.83615548555876 103.03999999999999 122.88 L 19.83 122.88 C 8.896405899569105 122.83615548555876 0.04384451444123272 113.98359410043089 0 103.05 L 0 21.47 C 0.04931034493447163 9.63293159913768 9.632931599137668 0.04931034493447939 21.469999999999988 0 Z M 80.39 89.08 L 42.49 89.08 L 42.49 33.8 L 60.18 33.8 L 60.18 74.93 L 80.39 74.93 L 80.39 89.08 Z M 103.05 10.079999999999998 L 21.47 10.079999999999998 C 18.452753215277983 10.08264902219282 15.56028456343198 11.284472381231257 13.429583360060155 13.42080043637255 C 11.29888215668833 15.557128491513843 10.104691452879795 18.45275672234382 10.11 21.47 L 10.11 103.05 C 10.137345301701455 108.40684008859473 14.473159911405265 112.74265469829854 19.830000000000002 112.77 L 103.05 112.77 C 108.41592296686304 112.76448800491839 112.76448800491839 108.41592296686304 112.77 103.05 L 112.77 19.83 C 112.76940475278072 17.364673914379992 111.83299665376302 14.991486976411473 110.14999999999999 13.189999999999998 L 109.91 12.969999999999997 C 108.09436853050155 11.142757220884816 105.62591160611224 10.113633780104431 103.05 10.109999999999998 Z" stroke-linecap="round" />
</g>
</svg>